<mxfile host="app.diagrams.net" modified="2022-01-24T16:04:18.939Z" agent="5.0 (Windows NT 10.0; Win64; x64) AppleWebKit/537.36 (KHTML, like Gecko) Chrome/89.0.4389.90 Safari/537.36 Edg/89.0.774.63" etag="uYH28ZGCgvbfLS6CrJ7F" version="15.7.3" type="github">
  <diagram id="K3KFvH2afC0Bzny-vCcr" name="JobStage">
    <mxGraphModel dx="1052" dy="507" grid="0" gridSize="10" guides="1" tooltips="1" connect="1" arrows="1" fold="1" page="0" pageScale="1" pageWidth="827" pageHeight="1169" math="0" shadow="0">
      <root>
        <mxCell id="0" />
        <mxCell id="1" parent="0" />
        <mxCell id="wfhivD08MaEo05ddZKV8-7" value="oMsgType: PREPARATION" style="edgeStyle=orthogonalEdgeStyle;rounded=0;orthogonalLoop=1;jettySize=auto;html=1;exitX=1;exitY=0.25;exitDx=0;exitDy=0;entryX=0;entryY=0.25;entryDx=0;entryDy=0;" edge="1" parent="1" source="wfhivD08MaEo05ddZKV8-1" target="wfhivD08MaEo05ddZKV8-3">
          <mxGeometry relative="1" as="geometry" />
        </mxCell>
        <mxCell id="wfhivD08MaEo05ddZKV8-10" value="" style="edgeStyle=orthogonalEdgeStyle;rounded=0;orthogonalLoop=1;jettySize=auto;html=1;" edge="1" parent="1" source="wfhivD08MaEo05ddZKV8-1" target="wfhivD08MaEo05ddZKV8-9">
          <mxGeometry relative="1" as="geometry" />
        </mxCell>
        <mxCell id="wfhivD08MaEo05ddZKV8-1" value="PREPRARTION" style="rounded=1;whiteSpace=wrap;html=1;" vertex="1" parent="1">
          <mxGeometry x="216" y="166" width="120" height="60" as="geometry" />
        </mxCell>
        <mxCell id="wfhivD08MaEo05ddZKV8-2" value="BRO" style="text;html=1;strokeColor=none;fillColor=none;align=center;verticalAlign=middle;whiteSpace=wrap;rounded=0;" vertex="1" parent="1">
          <mxGeometry x="246" y="118" width="60" height="30" as="geometry" />
        </mxCell>
        <mxCell id="wfhivD08MaEo05ddZKV8-8" value="aMsgType:&amp;nbsp;STAGE_COMPLETE" style="edgeStyle=orthogonalEdgeStyle;rounded=0;orthogonalLoop=1;jettySize=auto;html=1;exitX=0;exitY=0.75;exitDx=0;exitDy=0;entryX=1;entryY=0.75;entryDx=0;entryDy=0;" edge="1" parent="1" source="wfhivD08MaEo05ddZKV8-3" target="wfhivD08MaEo05ddZKV8-1">
          <mxGeometry relative="1" as="geometry" />
        </mxCell>
        <mxCell id="wfhivD08MaEo05ddZKV8-12" value="" style="edgeStyle=orthogonalEdgeStyle;rounded=0;orthogonalLoop=1;jettySize=auto;html=1;" edge="1" parent="1" source="wfhivD08MaEo05ddZKV8-3" target="wfhivD08MaEo05ddZKV8-11">
          <mxGeometry relative="1" as="geometry" />
        </mxCell>
        <mxCell id="wfhivD08MaEo05ddZKV8-3" value="PREPRATION" style="rounded=1;whiteSpace=wrap;html=1;" vertex="1" parent="1">
          <mxGeometry x="536" y="166" width="120" height="60" as="geometry" />
        </mxCell>
        <mxCell id="wfhivD08MaEo05ddZKV8-5" value="Agent" style="text;html=1;strokeColor=none;fillColor=none;align=center;verticalAlign=middle;whiteSpace=wrap;rounded=0;" vertex="1" parent="1">
          <mxGeometry x="566" y="118" width="60" height="30" as="geometry" />
        </mxCell>
        <mxCell id="wfhivD08MaEo05ddZKV8-6" value="Job Stage" style="text;html=1;strokeColor=none;fillColor=none;align=center;verticalAlign=middle;whiteSpace=wrap;rounded=0;" vertex="1" parent="1">
          <mxGeometry x="350" y="69" width="60" height="30" as="geometry" />
        </mxCell>
        <mxCell id="wfhivD08MaEo05ddZKV8-13" value="EXECUTION" style="edgeStyle=orthogonalEdgeStyle;rounded=0;orthogonalLoop=1;jettySize=auto;html=1;exitX=1;exitY=0.25;exitDx=0;exitDy=0;entryX=0;entryY=0.25;entryDx=0;entryDy=0;" edge="1" parent="1" source="wfhivD08MaEo05ddZKV8-9" target="wfhivD08MaEo05ddZKV8-11">
          <mxGeometry relative="1" as="geometry" />
        </mxCell>
        <mxCell id="wfhivD08MaEo05ddZKV8-16" value="" style="edgeStyle=orthogonalEdgeStyle;rounded=0;orthogonalLoop=1;jettySize=auto;html=1;fillColor=#d5e8d4;strokeColor=#82b366;" edge="1" parent="1" source="wfhivD08MaEo05ddZKV8-9" target="wfhivD08MaEo05ddZKV8-15">
          <mxGeometry relative="1" as="geometry" />
        </mxCell>
        <mxCell id="wfhivD08MaEo05ddZKV8-26" style="edgeStyle=orthogonalEdgeStyle;rounded=0;orthogonalLoop=1;jettySize=auto;html=1;exitX=0.25;exitY=1;exitDx=0;exitDy=0;entryX=0.5;entryY=0;entryDx=0;entryDy=0;fillColor=#d80073;strokeColor=#A50040;" edge="1" parent="1" source="wfhivD08MaEo05ddZKV8-9" target="wfhivD08MaEo05ddZKV8-24">
          <mxGeometry relative="1" as="geometry" />
        </mxCell>
        <mxCell id="wfhivD08MaEo05ddZKV8-9" value="EXECUTION" style="rounded=1;whiteSpace=wrap;html=1;" vertex="1" parent="1">
          <mxGeometry x="216" y="282" width="120" height="60" as="geometry" />
        </mxCell>
        <mxCell id="wfhivD08MaEo05ddZKV8-14" value="STAGE_COMPLETE" style="edgeStyle=orthogonalEdgeStyle;rounded=0;orthogonalLoop=1;jettySize=auto;html=1;exitX=0;exitY=0.75;exitDx=0;exitDy=0;entryX=1;entryY=0.75;entryDx=0;entryDy=0;" edge="1" parent="1" source="wfhivD08MaEo05ddZKV8-11" target="wfhivD08MaEo05ddZKV8-9">
          <mxGeometry relative="1" as="geometry" />
        </mxCell>
        <mxCell id="wfhivD08MaEo05ddZKV8-18" value="" style="edgeStyle=orthogonalEdgeStyle;rounded=0;orthogonalLoop=1;jettySize=auto;html=1;fillColor=#d5e8d4;strokeColor=#82b366;" edge="1" parent="1" source="wfhivD08MaEo05ddZKV8-11" target="wfhivD08MaEo05ddZKV8-17">
          <mxGeometry relative="1" as="geometry" />
        </mxCell>
        <mxCell id="wfhivD08MaEo05ddZKV8-32" style="edgeStyle=orthogonalEdgeStyle;rounded=0;orthogonalLoop=1;jettySize=auto;html=1;exitX=0.75;exitY=1;exitDx=0;exitDy=0;fillColor=#a20025;strokeColor=#6F0000;" edge="1" parent="1" source="wfhivD08MaEo05ddZKV8-11" target="wfhivD08MaEo05ddZKV8-30">
          <mxGeometry relative="1" as="geometry" />
        </mxCell>
        <mxCell id="wfhivD08MaEo05ddZKV8-11" value="EXECUTION" style="rounded=1;whiteSpace=wrap;html=1;" vertex="1" parent="1">
          <mxGeometry x="536" y="282" width="120" height="60" as="geometry" />
        </mxCell>
        <mxCell id="wfhivD08MaEo05ddZKV8-19" value="POST_ACTIONS" style="edgeStyle=orthogonalEdgeStyle;rounded=0;orthogonalLoop=1;jettySize=auto;html=1;exitX=1;exitY=0.25;exitDx=0;exitDy=0;entryX=0;entryY=0.25;entryDx=0;entryDy=0;" edge="1" parent="1" source="wfhivD08MaEo05ddZKV8-15" target="wfhivD08MaEo05ddZKV8-17">
          <mxGeometry relative="1" as="geometry" />
        </mxCell>
        <mxCell id="wfhivD08MaEo05ddZKV8-22" value="" style="edgeStyle=orthogonalEdgeStyle;rounded=0;orthogonalLoop=1;jettySize=auto;html=1;fillColor=#d5e8d4;strokeColor=#82b366;" edge="1" parent="1" source="wfhivD08MaEo05ddZKV8-15" target="wfhivD08MaEo05ddZKV8-21">
          <mxGeometry relative="1" as="geometry" />
        </mxCell>
        <mxCell id="wfhivD08MaEo05ddZKV8-15" value="POST_ACTIONS" style="rounded=1;whiteSpace=wrap;html=1;fillColor=#d5e8d4;strokeColor=#82b366;" vertex="1" parent="1">
          <mxGeometry x="216" y="407" width="120" height="60" as="geometry" />
        </mxCell>
        <mxCell id="wfhivD08MaEo05ddZKV8-20" value="STAGE_COMPLETE" style="edgeStyle=orthogonalEdgeStyle;rounded=0;orthogonalLoop=1;jettySize=auto;html=1;exitX=0;exitY=0.75;exitDx=0;exitDy=0;entryX=1;entryY=0.75;entryDx=0;entryDy=0;" edge="1" parent="1" source="wfhivD08MaEo05ddZKV8-17" target="wfhivD08MaEo05ddZKV8-15">
          <mxGeometry relative="1" as="geometry" />
        </mxCell>
        <mxCell id="wfhivD08MaEo05ddZKV8-17" value="POST_ACTIONS" style="rounded=1;whiteSpace=wrap;html=1;fillColor=#d5e8d4;strokeColor=#82b366;" vertex="1" parent="1">
          <mxGeometry x="536" y="407" width="120" height="60" as="geometry" />
        </mxCell>
        <mxCell id="wfhivD08MaEo05ddZKV8-21" value="COMPLETE" style="rounded=1;whiteSpace=wrap;html=1;fillColor=#d5e8d4;strokeColor=#82b366;" vertex="1" parent="1">
          <mxGeometry x="216" y="595" width="120" height="60" as="geometry" />
        </mxCell>
        <mxCell id="wfhivD08MaEo05ddZKV8-33" value="CANCEL_BACKUP_RESTORE" style="edgeStyle=orthogonalEdgeStyle;rounded=0;orthogonalLoop=1;jettySize=auto;html=1;exitX=1;exitY=0.25;exitDx=0;exitDy=0;entryX=0;entryY=0.25;entryDx=0;entryDy=0;" edge="1" parent="1" source="wfhivD08MaEo05ddZKV8-24" target="wfhivD08MaEo05ddZKV8-30">
          <mxGeometry relative="1" as="geometry" />
        </mxCell>
        <mxCell id="wfhivD08MaEo05ddZKV8-24" value="FAIL" style="rounded=1;whiteSpace=wrap;html=1;fillColor=#f8cecc;strokeColor=#b85450;" vertex="1" parent="1">
          <mxGeometry x="69" y="497" width="120" height="60" as="geometry" />
        </mxCell>
        <mxCell id="wfhivD08MaEo05ddZKV8-34" value="STAGE_COMPLETE" style="edgeStyle=orthogonalEdgeStyle;rounded=0;orthogonalLoop=1;jettySize=auto;html=1;exitX=0;exitY=0.75;exitDx=0;exitDy=0;entryX=1;entryY=0.75;entryDx=0;entryDy=0;" edge="1" parent="1" source="wfhivD08MaEo05ddZKV8-30" target="wfhivD08MaEo05ddZKV8-24">
          <mxGeometry relative="1" as="geometry" />
        </mxCell>
        <mxCell id="wfhivD08MaEo05ddZKV8-30" value="FAIL" style="rounded=1;whiteSpace=wrap;html=1;fillColor=#f8cecc;strokeColor=#b85450;" vertex="1" parent="1">
          <mxGeometry x="624" y="497" width="120" height="60" as="geometry" />
        </mxCell>
      </root>
    </mxGraphModel>
  </diagram>
</mxfile>
